<svg width="32" height="33" viewBox="0 0 32 33" fill="none" xmlns="http://www.w3.org/2000/svg">
<path fill-rule="evenodd" clip-rule="evenodd" d="M29.3332 16.3392C29.3332 8.98698 23.352 3.00586 15.9998 3.00586C8.64762 3.00586 2.6665 8.98698 2.6665 16.3392C2.6665 23.6914 8.64762 29.6725 15.9998 29.6725C23.352 29.6725 29.3332 23.6914 29.3332 16.3392ZM3.99984 16.3392C3.99984 9.72266 9.3833 4.33919 15.9998 4.33919C22.6164 4.33919 27.9998 9.72266 27.9998 16.3392C27.9998 22.9557 22.6164 28.3392 15.9998 28.3392C9.3833 28.3392 3.99984 22.9557 3.99984 16.3392ZM15.9998 13.6725C16.3274 13.6725 16.5994 13.9081 16.6558 14.2193L16.6665 14.3392V23.6725C16.6665 24.041 16.3683 24.3392 15.9998 24.3392C15.6723 24.3392 15.4003 24.1036 15.3439 23.7924L15.3332 23.6725V14.3392C15.3332 13.9707 15.6313 13.6725 15.9998 13.6725ZM16.6558 8.88595C16.5994 8.57479 16.3274 8.33919 15.9998 8.33919C15.6313 8.33919 15.3332 8.63737 15.3332 9.00586V10.3392L15.3439 10.4591C15.4003 10.7703 15.6723 11.0059 15.9998 11.0059C16.3683 11.0059 16.6665 10.7077 16.6665 10.3392V9.00586L16.6558 8.88595Z" fill="#EC0000"/>
</svg>
