<svg width="152" height="52" viewBox="0 0 152 52" fill="none" xmlns="http://www.w3.org/2000/svg">
<g clip-path="url(#clip0_352_882)">
<path d="M139.894 0.764648H9.55237C8.70103 0.777736 7.85184 0.854163 7.01184 0.993296C6.17199 1.13843 5.35852 1.40816 4.59834 1.79356C3.83592 2.18405 3.14113 2.69442 2.54051 3.30518C1.9303 3.90333 1.42376 4.59875 1.0416 5.363C0.656202 6.12319 0.386473 6.93666 0.241336 7.77651C0.0995796 8.61596 0.0273528 9.46569 0.0253906 10.317C0.0253906 10.7108 0.0253906 11.1046 0.0253906 11.4857V40.8542C0.0253906 41.248 0.0253906 41.629 0.0253906 42.0228C0.0273528 42.8742 0.0995796 43.7239 0.241336 44.5634C0.386357 45.4073 0.656061 46.225 1.0416 46.9896C1.42731 47.7479 1.93353 48.4386 2.54051 49.0347C3.13866 49.6449 3.83408 50.1514 4.59834 50.5336C5.35852 50.919 6.17199 51.1887 7.01184 51.3339C7.85184 51.473 8.70103 51.5494 9.55237 51.5625H142.447C143.299 51.55 144.148 51.4736 144.988 51.3339C145.831 51.1869 146.649 50.9172 147.414 50.5336C148.176 50.1481 148.871 49.6419 149.472 49.0347C150.071 48.4319 150.576 47.7425 150.971 46.9896C151.347 46.2221 151.612 45.4052 151.758 44.5634C151.898 43.7234 151.975 42.8742 151.987 42.0228C151.987 41.629 151.987 41.248 151.987 40.8542V11.4857C151.987 11.1046 151.987 10.7108 151.987 10.317C151.975 9.46566 151.898 8.61643 151.758 7.77651C151.612 6.93869 151.347 6.12602 150.971 5.363C150.58 4.60412 150.074 3.91003 149.472 3.30518C148.868 2.70169 148.174 2.19598 147.414 1.80626C146.649 1.42261 145.831 1.153 144.988 1.006C144.148 0.866301 143.299 0.78987 142.447 0.777351H139.907L139.894 0.764648Z" fill="#B7B7B7"/>
<path d="M10.7209 50.4572H9.57762C8.783 50.471 7.98857 50.42 7.20223 50.3048C6.46068 50.1593 5.74545 49.9024 5.08088 49.5426C4.42569 49.2205 3.82892 48.7912 3.31522 48.2724C2.79581 47.7544 2.36649 47.1533 2.04495 46.494C1.70666 45.8305 1.47109 45.1195 1.34631 44.3854C1.21716 43.6 1.14921 42.8058 1.14307 42.01C1.14307 41.7432 1.14307 40.8413 1.14307 40.8413V11.4855C1.14307 11.4855 1.14307 10.609 1.14307 10.355C1.1487 9.55909 1.21665 8.76486 1.34631 7.97958C1.46259 7.23689 1.69402 6.51689 2.03225 5.84554C2.35105 5.18459 2.78068 4.5831 3.30252 4.06717C3.82527 3.5534 4.42535 3.12478 5.08088 2.79691C5.74434 2.45861 6.45533 2.22304 7.18952 2.09826C7.97905 1.96846 8.77751 1.90051 9.57762 1.89502H142.435C143.226 1.90172 144.016 1.96967 144.797 2.09826C145.535 2.22571 146.25 2.46112 146.919 2.79691C148.236 3.46343 149.308 4.53089 149.98 5.84554C150.31 6.50668 150.541 7.21292 150.666 7.94148C150.793 8.73159 150.865 9.52952 150.882 10.3296V11.4601C150.882 11.9428 150.882 12.4001 150.882 12.8574V39.4567C150.882 39.9267 150.882 40.3713 150.882 40.8286V42.01C150.865 42.7974 150.793 43.5827 150.666 44.3599C150.545 45.0975 150.314 45.8127 149.98 46.4813C149.653 47.1334 149.224 47.7294 148.71 48.247C148.192 48.7664 147.591 49.1957 146.931 49.5172C146.271 49.8914 145.555 50.1573 144.81 50.3048C144.025 50.437 143.231 50.505 142.435 50.508H10.7209V50.4572Z" fill="#E2E2E2"/>
<path d="M31.4641 26.5508C31.4752 25.4899 31.7563 24.4493 32.2808 23.527C32.8052 22.6048 33.5558 21.8312 34.4619 21.2792C33.8863 20.4587 33.1274 19.7835 32.2454 19.3073C31.3635 18.831 30.3827 18.5668 29.3809 18.5354C27.2595 18.3068 25.189 19.8057 24.0966 19.8057C23.0041 19.8057 21.3147 18.5354 19.5109 18.5354C18.3454 18.5734 17.2097 18.9128 16.2145 19.5206C15.2194 20.1283 14.3988 20.9837 13.8328 22.0033C11.432 26.3095 13.2104 32.5211 15.5604 36.0016C16.7417 37.691 18.1009 39.571 19.9174 39.4948C21.7339 39.4186 22.3309 38.377 24.4649 38.377C26.599 38.377 27.1833 39.4948 29.0252 39.4567C30.8671 39.4186 32.1119 37.7672 33.2425 36.0651C34.0865 34.8652 34.738 33.5409 35.1733 32.14C34.0733 31.6771 33.1345 30.8998 32.4747 29.9055C31.8148 28.9112 31.4632 27.7442 31.4641 26.5508Z" fill="black"/>
<path d="M27.9453 16.2745C28.9718 15.0352 29.4773 13.4459 29.3553 11.8413C27.7807 12.0112 26.3265 12.7633 25.2777 13.9499C24.2499 15.1253 23.7292 16.6599 23.8296 18.218C24.6178 18.2258 25.3976 18.055 26.1104 17.7184C26.8232 17.3818 27.4505 16.8882 27.9453 16.2745Z" fill="black"/>
<path d="M53.7318 35.2395H47.7235L46.2754 39.5076H43.7349L49.4256 23.731H52.0805L57.7713 39.5076H55.2308L53.7318 35.2395ZM48.3459 33.2706H53.1094L50.8102 26.3477H50.7467L48.3459 33.2706Z" fill="black"/>
<path d="M70.0678 33.7912C70.0678 37.3607 68.1497 39.6599 65.2662 39.6599C64.5305 39.691 63.8008 39.5145 63.1607 39.1506C62.5205 38.7867 61.9956 38.2501 61.6459 37.602V43.2928H59.2324V28.0496H61.5189V29.9804C61.8902 29.3417 62.4276 28.8155 63.0739 28.4576C63.7203 28.0998 64.4515 27.9237 65.19 27.948C68.1497 27.8845 70.0678 30.1837 70.0678 33.7912ZM67.6416 33.7912C67.6416 31.4667 66.3713 29.9804 64.6056 29.9804C62.84 29.9804 61.5824 31.5429 61.5824 33.7912C61.5824 36.0396 62.8527 37.6655 64.6056 37.6655C66.3586 37.6655 67.6416 36.1031 67.6416 33.7912Z" fill="black"/>
<path d="M82.7191 33.7913C82.7191 37.3608 80.8137 39.66 77.9302 39.66C77.1943 39.6926 76.464 39.5168 75.8236 39.1527C75.1831 38.7887 74.6585 38.2512 74.31 37.6021V43.2929H71.8965V28.0497H74.183V29.9805C74.5532 29.3437 75.0886 28.8188 75.7325 28.461C76.3764 28.1033 77.105 27.9261 77.8413 27.9481C80.801 27.8846 82.7191 30.1838 82.7191 33.7913ZM80.2929 33.7913C80.2929 31.4668 79.0989 29.9805 77.257 29.9805C75.4151 29.9805 74.2465 31.543 74.2465 33.7913C74.2465 36.0397 75.4532 37.6021 77.257 37.6021C79.0608 37.6021 80.2929 36.1032 80.2929 33.7913Z" fill="black"/>
<path d="M91.0903 35.0619C91.2681 36.6243 92.7797 37.6025 94.9011 37.6025C97.0224 37.6025 98.3181 36.5735 98.3181 35.1635C98.3181 33.7536 97.4543 33.2073 95.4092 32.6992L93.364 32.2038C90.4678 31.5052 89.1341 30.1587 89.1341 27.9611C89.1341 25.2301 91.4967 23.3628 94.8629 23.3628C98.2291 23.3628 100.49 25.2301 100.566 27.9611H98.1402C98.0005 26.386 96.6921 25.4206 94.7994 25.4206C92.9067 25.4206 91.5984 26.3733 91.5984 27.7833C91.5984 28.8884 92.424 29.549 94.4565 30.0571L96.1967 30.4763C99.4359 31.2384 100.782 32.5468 100.782 34.846C100.782 37.8057 98.4197 39.6476 94.6851 39.6476C91.1919 39.6476 88.8292 37.8438 88.6768 34.9984L91.0903 35.0619Z" fill="black"/>
<path d="M105.876 25.2808V27.9991H108.061V29.8664H105.876V36.2177C105.876 37.1958 106.308 37.6531 107.273 37.6531C107.531 37.6689 107.79 37.6689 108.048 37.6531V39.5077C107.629 39.5866 107.204 39.6249 106.778 39.622C104.44 39.622 103.539 38.7456 103.539 36.5099V29.8664H101.824V27.9991H103.5V25.2808H105.876Z" fill="black"/>
<path d="M109.318 33.7915C109.318 30.1712 111.452 27.8975 114.78 27.8975C118.109 27.8975 120.23 30.1712 120.23 33.7915C120.23 37.4117 118.134 39.6474 114.78 39.6474C111.427 39.6474 109.318 37.3863 109.318 33.7915ZM117.829 33.7915C117.829 31.3145 116.686 29.841 114.78 29.841C112.875 29.841 111.783 31.251 111.783 33.7915C111.783 36.332 112.913 37.742 114.831 37.742C116.749 37.742 117.829 36.2431 117.829 33.7915Z" fill="black"/>
<path d="M122.187 27.9988H124.486V29.9804C124.64 29.37 124.999 28.831 125.503 28.4541C126.007 28.0771 126.626 27.8849 127.255 27.9099C127.529 27.9055 127.802 27.9353 128.068 27.9988V30.209C127.737 30.0715 127.384 29.994 127.026 29.9804C126.671 29.9544 126.315 30.008 125.984 30.1372C125.653 30.2665 125.354 30.4681 125.111 30.7274C124.867 30.9867 124.685 31.2972 124.577 31.636C124.469 31.9749 124.437 32.3336 124.486 32.6861V39.5074H122.187V27.9988Z" fill="black"/>
<path d="M138.941 36.1288C138.623 38.212 136.591 39.6474 134 39.6474C130.646 39.6474 128.576 37.3991 128.576 33.8042C128.576 30.2094 130.659 27.8594 133.898 27.8594C137.137 27.8594 139.081 30.0442 139.081 33.5375V34.3377H130.951V34.4902C130.915 34.9134 130.969 35.3394 131.11 35.7402C131.25 36.1409 131.475 36.5072 131.768 36.8146C132.061 37.1221 132.416 37.3638 132.81 37.5237C133.203 37.6835 133.626 37.758 134.051 37.742C134.608 37.794 135.167 37.6652 135.645 37.3747C136.123 37.0841 136.495 36.6472 136.705 36.1288H138.941ZM130.964 32.6864H136.718C136.739 32.3064 136.681 31.9261 136.548 31.5695C136.415 31.2129 136.21 30.8877 135.945 30.6145C135.68 30.3412 135.361 30.1258 135.009 29.9817C134.657 29.8377 134.279 29.7681 133.898 29.7775C133.514 29.7758 133.134 29.8497 132.779 29.995C132.424 30.1403 132.101 30.3541 131.828 30.6242C131.556 30.8943 131.339 31.2155 131.191 31.5693C131.043 31.9231 130.965 32.3027 130.964 32.6864Z" fill="black"/>
<path d="M45.0059 15.6522C45.0059 13.1879 46.2761 11.6763 48.4229 11.6763C49.1805 11.6377 49.925 11.8853 50.5085 12.37C51.0921 12.8547 51.4721 13.5412 51.5731 14.293H50.3918C50.2939 13.8487 50.0433 13.4527 49.6835 13.1742C49.3237 12.8956 48.8776 12.7521 48.4229 12.7687C47.051 12.7687 46.1999 13.8738 46.1999 15.6522C46.1999 17.4306 47.0002 18.5484 48.4229 18.5484C48.8624 18.5812 49.2996 18.4596 49.659 18.2045C50.0185 17.9494 50.2776 17.5768 50.3918 17.1511H51.5731C51.4687 17.8954 51.0851 18.5721 50.5001 19.0439C49.915 19.5158 49.1724 19.7473 48.4229 19.6917C46.3142 19.6154 45.0059 18.1038 45.0059 15.6522Z" fill="black"/>
<path d="M52.8555 16.5667C52.8301 16.1967 52.881 15.8254 53.0052 15.4758C53.1293 15.1263 53.324 14.806 53.5772 14.5349C53.8303 14.2638 54.1365 14.0476 54.4767 13.8998C54.8169 13.752 55.1839 13.6758 55.5548 13.6758C55.9257 13.6758 56.2927 13.752 56.6329 13.8998C56.9731 14.0476 57.2793 14.2638 57.5324 14.5349C57.7855 14.806 57.9802 15.1263 58.1044 15.4758C58.2285 15.8254 58.2795 16.1967 58.2541 16.5667C58.2795 16.9368 58.2285 17.3081 58.1044 17.6576C57.9802 18.0071 57.7855 18.3274 57.5324 18.5985C57.2793 18.8696 56.9731 19.0858 56.6329 19.2336C56.2927 19.3814 55.9257 19.4577 55.5548 19.4577C55.1839 19.4577 54.8169 19.3814 54.4767 19.2336C54.1365 19.0858 53.8303 18.8696 53.5772 18.5985C53.324 18.3274 53.1293 18.0071 53.0052 17.6576C52.881 17.3081 52.8301 16.9368 52.8555 16.5667ZM57.0854 16.5667C57.0854 15.2965 56.5265 14.6105 55.5611 14.6105C54.5957 14.6105 54.0241 15.3346 54.0241 16.5667C54.0241 17.7989 54.6211 18.5483 55.5611 18.5483C56.5011 18.5483 57.0854 17.8116 57.0854 16.5667Z" fill="black"/>
<path d="M59.7661 13.7087H60.8585V14.6233H60.9729C61.1187 14.2975 61.3619 14.0249 61.669 13.8429C61.976 13.6609 62.3319 13.5786 62.6877 13.6071C62.9648 13.587 63.2429 13.6294 63.5015 13.7312C63.76 13.8329 63.9924 13.9915 64.1814 14.1952C64.3704 14.3988 64.5112 14.6423 64.5935 14.9077C64.6757 15.1731 64.6973 15.4536 64.6566 15.7284V19.4376H63.5134V16.0079C63.5134 15.0806 63.1069 14.6233 62.2431 14.6233C62.0529 14.608 61.8618 14.6357 61.6837 14.7044C61.5057 14.7731 61.3455 14.881 61.2149 15.0201C61.0843 15.1593 60.9868 15.326 60.9295 15.508C60.8722 15.69 60.8566 15.8826 60.884 16.0714V19.4376H59.7534L59.7661 13.7087Z" fill="black"/>
<path d="M68.4545 13.6069C69.7248 13.6069 70.5886 14.204 70.7029 15.2075H69.6104C69.5088 14.7883 69.1023 14.5215 68.4545 14.5215C67.8067 14.5215 67.3494 14.8264 67.3494 15.271C67.3494 15.7156 67.6415 15.8299 68.264 15.9696L69.2167 16.1856C70.2964 16.4396 70.8045 16.9096 70.8045 17.748C70.8045 18.8277 69.801 19.5391 68.4418 19.5391C67.0826 19.5391 66.1934 18.9293 66.0537 17.9131H67.1842C67.324 18.3577 67.7432 18.6245 68.4545 18.6245C69.1659 18.6245 69.7248 18.3196 69.7248 17.8623C69.7248 17.405 69.4453 17.2907 68.8737 17.1637L67.8829 16.935C66.7905 16.6683 66.2951 16.1856 66.2951 15.3345C66.2951 14.4834 67.1715 13.6069 68.4545 13.6069Z" fill="black"/>
<path d="M72.2402 12.7559L73.5486 10.9268H74.9459L73.3962 12.7559H72.2402ZM72.3546 13.7086H73.4724V19.4375H72.4054L72.3546 13.7086Z" fill="black"/>
<path d="M75.2379 20.0092H76.3812C76.4828 20.4284 76.9655 20.6952 77.7276 20.6952C78.4898 20.6952 79.2139 20.2379 79.2139 19.4884V18.3833H79.1376C78.9605 18.691 78.702 18.9439 78.3905 19.1142C78.079 19.2845 77.7266 19.3656 77.372 19.3487C75.9112 19.3487 75.0093 18.2181 75.0093 16.5033C75.0093 14.7884 75.9239 13.6198 77.3847 13.6198C77.7464 13.6075 78.1046 13.6946 78.4203 13.8715C78.736 14.0484 78.9973 14.3084 79.1757 14.6233H79.2647V13.7087H80.3444V19.4757C80.3444 20.746 79.3282 21.6225 77.7022 21.6225C76.2795 21.6225 75.3522 20.9746 75.2379 20.0092ZM79.2393 16.5033C79.2393 15.36 78.6549 14.636 77.6895 14.636C76.7241 14.636 76.216 15.36 76.216 16.5033C76.216 17.6465 76.7622 18.3706 77.7276 18.3706C78.693 18.3706 79.2393 17.6465 79.2393 16.5033Z" fill="black"/>
<path d="M86.9753 19.4374H85.8828V18.5482H85.7939C85.6505 18.8786 85.406 19.1549 85.0956 19.3375C84.7851 19.5201 84.4248 19.5996 84.0664 19.5644C83.7899 19.5866 83.512 19.5461 83.2533 19.4458C82.9947 19.3456 82.7621 19.1882 82.5728 18.9855C82.3835 18.7827 82.2424 18.5399 82.1601 18.275C82.0778 18.0101 82.0564 17.7301 82.0974 17.4558V13.7085H83.228V17.1382C83.228 18.0528 83.5964 18.4974 84.422 18.4974C84.616 18.5227 84.8132 18.503 84.9982 18.4396C85.1833 18.3762 85.3512 18.271 85.4889 18.1321C85.6266 17.9931 85.7303 17.8243 85.7921 17.6387C85.8538 17.4531 85.8718 17.2557 85.8447 17.062V13.7085H86.9753V19.4374Z" fill="black"/>
<path d="M93.6061 17.8878C93.4524 18.4228 93.1108 18.8844 92.6441 19.1877C92.1774 19.4911 91.6169 19.6159 91.0656 19.5392C90.6864 19.5593 90.3076 19.4943 89.9569 19.3487C89.6062 19.2032 89.2925 18.9809 89.0391 18.6982C88.7856 18.4154 88.5987 18.0795 88.4922 17.715C88.3856 17.3506 88.3622 16.9669 88.4235 16.5922C88.3724 16.2182 88.4024 15.8377 88.5115 15.4764C88.6206 15.1151 88.8061 14.7815 89.0556 14.4983C89.305 14.2152 89.6125 13.989 89.9572 13.8352C90.3018 13.6814 90.6755 13.6036 91.0529 13.607C92.6534 13.607 93.5934 14.6868 93.5934 16.4905V16.8843H89.6302V16.9478C89.618 17.1548 89.6485 17.362 89.7198 17.5567C89.7911 17.7513 89.9016 17.9292 90.0446 18.0793C90.1875 18.2294 90.3598 18.3485 90.5508 18.4292C90.7417 18.5099 90.9472 18.5505 91.1545 18.5484C91.4248 18.5799 91.6984 18.5302 91.9404 18.4058C92.1824 18.2814 92.382 18.0879 92.5137 17.8497L93.6061 17.8878ZM89.6302 16.0078H92.5264C92.5406 15.8155 92.5145 15.6223 92.4496 15.4406C92.3848 15.259 92.2828 15.0929 92.15 14.953C92.0173 14.813 91.8568 14.7024 91.6788 14.6281C91.5008 14.5538 91.3092 14.5176 91.1164 14.5216C90.9208 14.5199 90.7267 14.5572 90.5457 14.6313C90.3646 14.7054 90.2001 14.8148 90.0617 14.9532C89.9234 15.0915 89.814 15.256 89.7399 15.4371C89.6658 15.6182 89.6285 15.8122 89.6302 16.0078Z" fill="black"/>
<path d="M95.27 11.4858H96.4006V19.4377H95.27V11.4858Z" fill="black"/>
<path d="M97.9375 16.5667C97.9121 16.1967 97.9631 15.8254 98.0872 15.4758C98.2114 15.1263 98.4061 14.806 98.6592 14.5349C98.9123 14.2638 99.2185 14.0476 99.5587 13.8998C99.8989 13.752 100.266 13.6758 100.637 13.6758C101.008 13.6758 101.375 13.752 101.715 13.8998C102.055 14.0476 102.361 14.2638 102.614 14.5349C102.868 14.806 103.062 15.1263 103.186 15.4758C103.311 15.8254 103.362 16.1967 103.336 16.5667C103.362 16.9368 103.311 17.3081 103.186 17.6576C103.062 18.0071 102.868 18.3274 102.614 18.5985C102.361 18.8696 102.055 19.0858 101.715 19.2336C101.375 19.3814 101.008 19.4577 100.637 19.4577C100.266 19.4577 99.8989 19.3814 99.5587 19.2336C99.2185 19.0858 98.9123 18.8696 98.6592 18.5985C98.4061 18.3274 98.2114 18.0071 98.0872 17.6576C97.9631 17.3081 97.9121 16.9368 97.9375 16.5667ZM102.167 16.5667C102.167 15.2965 101.621 14.6105 100.643 14.6105C99.6651 14.6105 99.0807 15.3346 99.0807 16.5667C99.0807 17.7989 99.6524 18.5483 100.643 18.5483C101.634 18.5483 102.167 17.8116 102.167 16.5667Z" fill="black"/>
<path d="M112.787 17.8878C112.634 18.4228 112.292 18.8844 111.825 19.1877C111.359 19.4911 110.798 19.6159 110.247 19.5392C109.868 19.5593 109.489 19.4942 109.138 19.3487C108.787 19.2032 108.474 18.9809 108.22 18.6981C107.967 18.4154 107.78 18.0795 107.673 17.715C107.567 17.3506 107.543 16.9669 107.605 16.5921C107.556 16.2175 107.587 15.8367 107.698 15.4755C107.809 15.1142 107.995 14.7808 108.246 14.4979C108.496 14.215 108.805 13.9891 109.15 13.8354C109.495 13.6817 109.869 13.6038 110.247 13.607C111.835 13.607 112.787 14.6868 112.787 16.4905V16.8843H108.824V16.9478C108.81 17.1541 108.839 17.3611 108.909 17.5557C108.978 17.7503 109.088 17.9284 109.23 18.0787C109.372 18.229 109.543 18.3484 109.734 18.4292C109.924 18.51 110.129 18.5506 110.336 18.5484C110.608 18.5791 110.883 18.5292 111.127 18.405C111.37 18.2808 111.572 18.0877 111.708 17.8497L112.787 17.8878ZM108.824 16.0078H111.708C111.722 15.8155 111.696 15.6223 111.631 15.4406C111.566 15.259 111.464 15.0929 111.331 14.9529C111.198 14.813 111.038 14.7024 110.86 14.6281C110.682 14.5538 110.49 14.5176 110.298 14.5216C110.103 14.5199 109.909 14.5573 109.729 14.6315C109.548 14.7057 109.385 14.8153 109.247 14.9539C109.11 15.0924 109.002 15.257 108.929 15.438C108.856 15.619 108.821 15.8128 108.824 16.0078Z" fill="black"/>
<path d="M114.324 13.7085H115.403V14.6231H115.594C115.738 14.2984 115.978 14.0262 116.283 13.8441C116.588 13.6621 116.942 13.5792 117.296 13.6069C117.574 13.5848 117.854 13.6257 118.114 13.7266C118.374 13.8275 118.608 13.9858 118.799 14.1897C118.989 14.3936 119.131 14.6378 119.214 14.9042C119.297 15.1706 119.319 15.4523 119.278 15.7283V19.4374H118.135V16.0077C118.135 15.0804 117.741 14.6231 116.864 14.6231C116.674 14.6078 116.483 14.6355 116.305 14.7042C116.127 14.7729 115.967 14.8808 115.836 15.02C115.705 15.1591 115.608 15.3258 115.551 15.5078C115.493 15.6898 115.478 15.8824 115.505 16.0712V19.4374H114.324V13.7085Z" fill="black"/>
<path d="M128.92 17.8878C128.767 18.4108 128.435 18.8632 127.982 19.1653C127.529 19.4674 126.984 19.5998 126.443 19.5392C126.063 19.5593 125.685 19.4943 125.334 19.3487C124.983 19.2032 124.669 18.9809 124.416 18.6982C124.163 18.4154 123.976 18.0795 123.869 17.715C123.763 17.3506 123.739 16.9669 123.8 16.5922C123.749 16.2182 123.779 15.8377 123.888 15.4764C123.998 15.1151 124.183 14.7815 124.433 14.4983C124.682 14.2152 124.989 13.989 125.334 13.8352C125.679 13.6814 126.052 13.6036 126.43 13.607C128.03 13.607 128.97 14.6868 128.97 16.4905V16.8843H124.944V16.9478C124.931 17.1548 124.962 17.362 125.033 17.5567C125.104 17.7513 125.215 17.9292 125.358 18.0793C125.501 18.2294 125.673 18.3485 125.864 18.4292C126.055 18.5099 126.261 18.5505 126.468 18.5484C126.738 18.5799 127.012 18.5302 127.254 18.4058C127.496 18.2814 127.695 18.0879 127.827 17.8497L128.92 17.8878ZM124.944 16.0078H127.84C127.854 15.8155 127.828 15.6223 127.763 15.4406C127.698 15.259 127.596 15.0929 127.463 14.953C127.331 14.813 127.17 14.7024 126.992 14.6281C126.814 14.5538 126.623 14.5176 126.43 14.5216C126.234 14.5199 126.04 14.5572 125.859 14.6313C125.678 14.7054 125.514 14.8148 125.375 14.9532C125.237 15.0915 125.127 15.256 125.053 15.4371C124.979 15.6182 124.942 15.8122 124.944 16.0078Z" fill="black"/>
<path d="M130.558 11.4858H131.676V19.4377H130.558V11.4858Z" fill="black"/>
</g>
<defs>
<clipPath id="clip0_352_882">
<rect width="152" height="50.8106" fill="white" transform="translate(0 0.764648)"/>
</clipPath>
</defs>
</svg>
