<svg width="20" height="16" viewBox="0 0 20 16" xmlns="http://www.w3.org/2000/svg" fill="#127277">
<path d="M11.1824 15.7018C10.7948 15.3084 10.7995 14.6752 11.1929 14.2876L16.5601 9L1 9C0.447716 9 -4.82814e-08 8.55228 0 8C4.82831e-08 7.44772 0.447716 7 1 7L16.5601 7L11.1929 1.71236C10.7995 1.32476 10.7948 0.691617 11.1824 0.29819C11.57 -0.0952372 12.2031 -0.0999635 12.5965 0.287636L19.7018 7.28764C19.8926 7.47558 20 7.7322 20 8C20 8.2678 19.8926 8.52442 19.7018 8.71237L12.5965 15.7124C12.2031 16.1 11.57 16.0952 11.1824 15.7018Z"/>
</svg>
