<svg width="8" height="15" viewBox="0 0 8 15" fill="none" xmlns="http://www.w3.org/2000/svg">
<path d="M1.00434 14.5041C0.738924 14.5056 0.483816 14.4013 0.29537 14.2141C0.106332 14.0263 0 13.7707 0 13.5041C0 13.2375 0.106332 12.9819 0.29537 12.7941L5.5877 7.50409L0.29537 2.21409C-0.0961844 1.82197 -0.0961844 1.18621 0.29537 0.794092C0.686925 0.401969 1.32176 0.401969 1.71331 0.794092L7.70463 6.79409C7.89367 6.98186 8 7.23745 8 7.50409C8 7.77073 7.89367 8.02633 7.70463 8.21409L1.71331 14.2141C1.52487 14.4013 1.26976 14.5056 1.00434 14.5041Z" fill="#EC0000"/>
</svg>
