<svg width="57" height="57" viewBox="0 0 57 57" fill="none" xmlns="http://www.w3.org/2000/svg">
<path fill-rule="evenodd" clip-rule="evenodd" d="M12.1665 50.4619V43.517C12.1665 38.43 13.299 34.0747 13.9735 31.9311C14.3403 30.766 15.1082 29.7603 16.1359 29.1004L23.8288 24.1714L23.8218 6.17093C23.8218 5.8626 23.9448 5.56564 24.1636 5.34719C24.3823 5.12874 24.6785 5.00586 24.9884 5.00586H45.9998C46.6447 5.00586 47.1665 5.52696 47.1665 6.17093V38.793C47.1665 39.437 46.6447 39.9581 45.9998 39.9581H32.3396C32.2033 40.2284 32.0698 40.4927 31.9565 40.7124C31.7127 41.1891 31.5578 41.7739 31.4712 42.5556C31.0496 46.341 28.7664 49.6974 25.3599 51.5326C25.1844 51.6282 24.9953 51.6725 24.8062 51.6725C24.3914 51.6725 23.9904 51.4507 23.7785 51.0604C23.4731 50.4949 23.6851 49.7884 24.2524 49.4823C27.0256 47.9873 28.8097 45.3693 29.1515 42.2985C29.27 41.2267 29.5024 40.3836 29.883 39.6463C30.979 37.5198 33.3283 32.6661 33.9071 31.4271C34.356 30.4714 34.4015 29.8058 34.0438 29.4485C33.6291 29.0344 32.9045 29.0344 32.4897 29.4485L25.8253 36.1039L25.8246 36.1046L24.241 37.686C23.7853 38.1411 23.047 38.1411 22.5913 37.686C22.1356 37.2308 22.1356 36.4936 22.5913 36.0385L23.833 34.7984L23.8299 26.9382L17.396 31.0607C16.8195 31.4316 16.4048 31.9744 16.1974 32.6297C15.564 34.6458 14.4998 38.7407 14.4998 43.517V50.4619C14.4998 51.1059 13.978 51.627 13.3332 51.627C12.6883 51.627 12.1665 51.1059 12.1665 50.4619ZM44.8332 37.6279V7.33601H26.1551L26.1654 32.4693L30.84 27.801C31.7274 26.9133 33.061 26.6806 34.2352 27.0101V26.3571C31.7354 26.0759 30.5422 24.9189 30.4002 24.7712C29.9513 24.3081 29.965 23.5708 30.4298 23.1237C30.8924 22.6765 31.633 22.6913 32.0773 23.1532L32.078 23.1539C32.117 23.1895 33.1035 24.0896 35.3563 24.0896C35.3594 24.0896 35.3628 24.0895 35.3662 24.0893C35.3697 24.0892 35.3731 24.0891 35.3762 24.0891C35.3807 24.089 35.3848 24.0877 35.3889 24.0865C35.3931 24.0852 35.3972 24.0839 35.4019 24.0839C35.4054 24.0839 35.4086 24.0849 35.4118 24.0859C35.415 24.0869 35.4181 24.0879 35.4215 24.0879C36.601 24.08 38.4985 23.8395 38.4985 22.3602C38.4985 21.4625 37.2248 20.8914 35.2788 20.1234C33.0571 19.2462 30.2909 18.1539 30.2909 15.3345C30.2909 13.3457 31.9051 11.8504 34.2352 11.5438V10.3374C34.2352 9.69346 34.757 9.17236 35.4019 9.17236C36.0467 9.17236 36.5685 9.69346 36.5685 10.3374V11.6307C38.2982 11.963 39.6383 12.7505 39.7085 12.7927C40.2576 13.125 40.4354 13.8383 40.1027 14.389C39.77 14.9397 39.0568 15.1149 38.5031 14.7884C38.4871 14.7781 36.842 13.8088 35.1261 13.8088C33.9139 13.8088 32.6242 14.3435 32.6242 15.3345C32.6242 16.4837 34.0142 17.1185 36.1379 17.9571L36.1435 17.9593C38.341 18.828 40.8319 19.8127 40.8319 22.3602C40.8319 24.1095 39.6762 25.9554 36.5685 26.3381V29.2562C36.5685 29.2813 36.562 29.3043 36.5555 29.3273C36.5504 29.3449 36.5454 29.3625 36.5433 29.3812C36.7022 30.1535 36.6165 31.1441 36.0216 32.4135C35.6462 33.2151 34.5378 35.513 33.4979 37.6279H44.8332Z" fill="#EC0000"/>
</svg>
