<svg width="57" height="57" viewBox="0 0 57 57" fill="none" xmlns="http://www.w3.org/2000/svg">
<path fill-rule="evenodd" clip-rule="evenodd" d="M11.0002 5.00586H29.6668C29.984 5.00586 30.2607 5.14039 30.4667 5.34886L30.6075 5.51813L42.1045 17.0152C42.3441 17.2297 42.5014 17.5327 42.5002 17.8791L42.4824 17.9662L42.5002 22.5013C42.5024 23.1462 41.9829 23.6702 41.3381 23.6725C40.856 23.6685 40.3073 23.2629 40.1897 22.72L40.1668 22.5104L40.1534 19.0386L29.717 19.0059C29.1478 19.0038 28.6741 18.594 28.5742 18.0533L28.5549 17.8449L28.5056 7.33919H12.1668V49.3392H27.3335C27.9784 49.3392 28.5002 49.861 28.5002 50.5059C28.5002 51.0791 28.0879 51.555 27.5433 51.6537L27.3335 51.6725H11.0002C10.427 51.6725 9.95097 51.2602 9.85228 50.7157L9.8335 50.5059V6.17253C9.8335 5.52767 10.3553 5.00586 11.0002 5.00586ZM39.0002 28.3392C44.7902 28.3392 49.5002 33.0492 49.5002 38.8392C49.5002 44.6292 44.7902 49.3392 39.0002 49.3392C33.2101 49.3392 28.5002 44.6292 28.5002 38.8392C28.5002 33.0492 33.2101 28.3392 39.0002 28.3392ZM30.8335 38.8392C30.8335 34.3366 34.4976 30.6725 39.0002 30.6725C43.5028 30.6725 47.1668 34.3366 47.1668 38.8392C47.1668 43.3418 43.5028 47.0059 39.0002 47.0059C34.4976 47.0059 30.8335 43.3418 30.8335 38.8392ZM41.8713 35.1842C42.2404 34.6556 42.9696 34.5246 43.4937 34.8937C43.9656 35.2208 44.1206 35.8315 43.89 36.3345L43.7853 36.5173L38.8247 43.6449C38.6082 43.9582 38.2505 44.145 37.8677 44.145C37.5614 44.145 37.2712 44.0254 37.0566 43.8166L36.9106 43.6437L34.1649 39.6914C33.7957 39.1628 33.9279 38.4359 34.4565 38.0679C34.9244 37.7408 35.5525 37.8079 35.944 38.199L36.0789 38.3607L37.8677 40.9344L41.8713 35.1842ZM30.8836 16.6759L30.8473 9.05743L38.4899 16.7L30.8836 16.6759Z" fill="#EC0000"/>
</svg>
