<svg width="33" height="33" viewBox="0 0 33 33" fill="none" xmlns="http://www.w3.org/2000/svg">
<circle cx="16.3335" cy="16.3394" r="16" fill="#788B96"/>
<path d="M17.7361 7.00586C16.6082 7.00586 15.5265 7.50426 14.7289 8.39142C13.9313 9.27858 13.4832 10.4818 13.4832 11.7365V14.3702H11.2074C11.0931 14.3702 11.0005 14.4732 11.0005 14.6004V18.078C11.0005 18.2051 11.0931 18.3081 11.2074 18.3081H13.4832V25.4424C13.4832 25.5695 13.5759 25.6725 13.6901 25.6725H16.8166C16.9309 25.6725 17.0235 25.5695 17.0235 25.4424V18.3081H19.3195C19.4145 18.3081 19.4972 18.2362 19.5202 18.1339L20.3018 14.6562C20.3345 14.511 20.2357 14.3702 20.1011 14.3702H17.0235V11.7365C17.0235 11.5262 17.0986 11.3246 17.2322 11.1759C17.3658 11.0273 17.5472 10.9438 17.7361 10.9438H20.1269C20.2412 10.9438 20.3338 10.8407 20.3338 10.7136V7.236C20.3338 7.1089 20.2412 7.00586 20.1269 7.00586H17.7361Z" fill="#F5F9FB"/>
</svg>
