<svg width="152" height="52" viewBox="0 0 152 52" fill="none" xmlns="http://www.w3.org/2000/svg">
<g clip-path="url(#clip0_352_913)">
<path d="M139.894 0.764648H9.55237C8.70103 0.777736 7.85184 0.854163 7.01184 0.993296C6.17199 1.13843 5.35852 1.40816 4.59834 1.79356C3.83316 2.17957 3.13768 2.69044 2.54051 3.30518C1.9303 3.90333 1.42376 4.59875 1.0416 5.363C0.656202 6.12319 0.386473 6.93666 0.241336 7.77651C0.0995796 8.61596 0.0273528 9.46569 0.0253906 10.317C0.0253906 10.7108 0.0253906 11.1046 0.0253906 11.4857V40.8542C0.0253906 41.248 0.0253906 41.629 0.0253906 42.0228C0.0273528 42.8742 0.0995796 43.7239 0.241336 44.5634C0.386357 45.4073 0.656061 46.225 1.0416 46.9896C1.42731 47.7479 1.93353 48.4386 2.54051 49.0347C3.13866 49.6449 3.83408 50.1514 4.59834 50.5336C5.35852 50.919 6.17199 51.1887 7.01184 51.3339C7.85184 51.473 8.70103 51.5494 9.55237 51.5625H142.447C143.299 51.55 144.148 51.4736 144.988 51.3339C145.831 51.1869 146.649 50.9172 147.414 50.5336C148.176 50.1481 148.871 49.6419 149.472 49.0347C150.071 48.4319 150.576 47.7425 150.971 46.9896C151.347 46.2221 151.612 45.4052 151.758 44.5634C151.898 43.7234 151.975 42.8742 151.987 42.0228C151.987 41.629 151.987 41.248 151.987 40.8542V11.4857C151.987 11.1046 151.987 10.7108 151.987 10.317C151.975 9.46566 151.898 8.61643 151.758 7.77651C151.612 6.93869 151.347 6.12602 150.971 5.363C150.58 4.60412 150.074 3.91003 149.472 3.30518C148.871 2.69793 148.176 2.19176 147.414 1.80626C146.649 1.42261 145.831 1.153 144.988 1.006C144.148 0.866301 143.299 0.78987 142.447 0.777351H139.907L139.894 0.764648Z" fill="#B7B7B7"/>
<path d="M10.7209 50.4572H9.57762C8.783 50.471 7.98857 50.42 7.20223 50.3048C6.46068 50.1593 5.74545 49.9024 5.08088 49.5426C4.42569 49.2205 3.82892 48.7912 3.31522 48.2724C2.79581 47.7544 2.36649 47.1533 2.04495 46.494C1.70666 45.8305 1.47109 45.1195 1.34631 44.3854C1.21716 43.6 1.14921 42.8058 1.14307 42.01C1.14307 41.7432 1.14307 40.8413 1.14307 40.8413V11.4855C1.14307 11.4855 1.14307 10.609 1.14307 10.355C1.1487 9.55909 1.21665 8.76486 1.34631 7.97958C1.46259 7.23689 1.69402 6.51689 2.03225 5.84554C2.35105 5.18459 2.78068 4.5831 3.30252 4.06717C3.82527 3.5534 4.42535 3.12478 5.08088 2.79691C5.74434 2.45861 6.45533 2.22304 7.18952 2.09826C7.97905 1.96846 8.77751 1.90051 9.57762 1.89502H142.435C143.226 1.90172 144.016 1.96967 144.797 2.09826C145.535 2.22571 146.25 2.46112 146.919 2.79691C148.236 3.46343 149.308 4.53089 149.98 5.84554C150.31 6.50668 150.541 7.21292 150.666 7.94148C150.793 8.73159 150.865 9.52952 150.882 10.3296V11.4601C150.882 11.9428 150.882 12.4001 150.882 12.8574V39.4567C150.882 39.9267 150.882 40.3713 150.882 40.8286V42.01C150.865 42.7974 150.793 43.5827 150.666 44.3599C150.545 45.0975 150.314 45.8127 149.98 46.4813C149.653 47.1334 149.224 47.7294 148.71 48.247C148.192 48.7664 147.591 49.1957 146.931 49.5172C146.271 49.8914 145.555 50.1573 144.81 50.3048C144.025 50.437 143.231 50.505 142.435 50.508H10.7209V50.4572Z" fill="#E2E2E2"/>
<path d="M23.4871 25.9922L12.7661 37.4246C12.8845 37.8538 13.0999 38.2502 13.3957 38.5831C13.6914 38.916 14.0597 39.1766 14.472 39.3447C14.8844 39.5128 15.3298 39.5841 15.774 39.5529C16.2183 39.5217 16.6494 39.3889 17.0342 39.1648L29.1017 32.2038L23.4871 25.9922Z" fill="#E33928"/>
<path d="M34.2969 24.0486L29.1015 21.0889L23.2456 26.2461L29.1269 32.1275L34.2969 29.1423C34.7527 28.8929 35.1329 28.5254 35.3979 28.0784C35.6628 27.6314 35.8025 27.1214 35.8025 26.6018C35.8025 26.0822 35.6628 25.5722 35.3979 25.1252C35.1329 24.6782 34.7527 24.3108 34.2969 24.0613" fill="#F9BC00"/>
<path d="M12.7667 15.7666C12.7009 16.011 12.6667 16.2629 12.665 16.5161V36.6116C12.6659 36.8648 12.7 37.1168 12.7667 37.3611L23.8561 26.2717L12.7667 15.7666Z" fill="#5A7DBA"/>
<path d="M23.5634 26.5636L29.1144 21.0888L17.0596 14.1023C16.6084 13.8266 16.0895 13.6815 15.5607 13.6831C14.9242 13.6859 14.3061 13.8974 13.8013 14.2852C13.2965 14.6729 12.9329 15.2156 12.7661 15.8299L23.5634 26.5636Z" fill="#20A344"/>
<path d="M73.7388 29.5742C72.7618 29.5867 71.8103 29.8878 71.0041 30.4398C70.1978 30.9917 69.5727 31.7697 69.2075 32.676C68.8422 33.5822 68.7531 34.5762 68.9514 35.533C69.1497 36.4898 69.6264 37.3665 70.3217 38.053C71.017 38.7395 71.8998 39.2051 72.859 39.3912C73.8182 39.5772 74.811 39.4755 75.7126 39.0987C76.6141 38.722 77.3841 38.087 77.9257 37.2738C78.4673 36.4605 78.7563 35.5053 78.7564 34.5282C78.765 33.8742 78.6423 33.2251 78.3955 32.6193C78.1488 32.0135 77.7831 31.4634 77.32 31.0015C76.8569 30.5396 76.3058 30.1753 75.6994 29.9301C75.0931 29.6849 74.4437 29.5639 73.7897 29.5742M73.7897 37.526C73.1864 37.5694 72.584 37.43 72.0611 37.1261C71.5381 36.8222 71.1188 36.3679 70.8578 35.8222C70.5969 35.2766 70.5063 34.665 70.5979 34.0671C70.6896 33.4692 70.9592 32.9129 71.3716 32.4704C71.784 32.028 72.3202 31.7201 72.9101 31.5868C73.5001 31.4534 74.1166 31.5009 74.6791 31.723C75.2417 31.9451 75.7244 32.3315 76.0642 32.8319C76.404 33.3322 76.5852 33.9233 76.5842 34.5282C76.603 34.9098 76.5451 35.2913 76.4138 35.6502C76.2826 36.009 76.0807 36.3379 75.8202 36.6174C75.5597 36.8969 75.2457 37.1213 74.8969 37.2774C74.5482 37.4334 74.1717 37.518 73.7897 37.526ZM62.9416 29.5742C61.9623 29.5767 61.0058 29.8693 60.1928 30.4152C59.3797 30.9611 58.7468 31.7357 58.3737 32.6411C58.0007 33.5466 57.9044 34.5423 58.097 35.5024C58.2896 36.4626 58.7624 37.3441 59.4558 38.0357C60.1491 38.7272 61.0318 39.1978 61.9925 39.3879C62.9531 39.5781 63.9486 39.4792 64.8531 39.1039C65.7575 38.7286 66.5305 38.0936 67.0743 37.2792C67.6181 36.4648 67.9083 35.5075 67.9083 34.5282C67.9169 33.8742 67.7942 33.2251 67.5475 32.6193C67.3007 32.0135 66.935 31.4634 66.4719 31.0015C66.0088 30.5396 65.4578 30.1753 64.8514 29.9301C64.245 29.6849 63.5956 29.5639 62.9416 29.5742ZM62.9416 37.526C62.3383 37.5694 61.736 37.43 61.213 37.1261C60.6901 36.8222 60.2708 36.3679 60.0098 35.8222C59.7488 35.2766 59.6583 34.665 59.7499 34.0671C59.8415 33.4692 60.1111 32.9129 60.5236 32.4704C60.936 32.028 61.4721 31.7201 62.0621 31.5868C62.6521 31.4534 63.2685 31.5009 63.8311 31.723C64.3937 31.9451 64.8763 32.3315 65.2161 32.8319C65.556 33.3322 65.7372 33.9233 65.7362 34.5282C65.7549 34.9098 65.697 35.2913 65.5658 35.6502C65.4345 36.009 65.2327 36.3379 64.9721 36.6174C64.7116 36.8969 64.3977 37.1213 64.0489 37.2774C63.7001 37.4334 63.3236 37.518 62.9416 37.526ZM49.9849 31.0985V33.1944H55.0024C54.9399 34.1812 54.5357 35.1154 53.8592 35.8366C53.3661 36.344 52.7723 36.7428 52.1161 37.0075C51.4599 37.2722 50.7556 37.3968 50.0484 37.3736C48.5661 37.3736 47.1445 36.7847 46.0963 35.7365C45.0481 34.6884 44.4593 33.2668 44.4593 31.7844C44.4593 30.3021 45.0481 28.8805 46.0963 27.8323C47.1445 26.7841 48.5661 26.1953 50.0484 26.1953C51.4665 26.1737 52.8358 26.7123 53.8592 27.6942L55.2565 26.1698C54.562 25.4849 53.7384 24.9447 52.8334 24.5805C51.9285 24.2163 50.9603 24.0355 49.9849 24.0485C47.9433 24.0485 45.9854 24.8595 44.5417 26.3031C43.0981 27.7468 42.2871 29.7047 42.2871 31.7463C42.2871 33.7879 43.0981 35.7459 44.5417 37.1895C45.9854 38.6331 47.9433 39.4441 49.9849 39.4441C50.9291 39.4958 51.8737 39.3503 52.7586 39.0169C53.6434 38.6834 54.4491 38.1692 55.1243 37.5072C55.7995 36.8452 56.3294 36.0497 56.6802 35.1716C57.031 34.2935 57.1951 33.3519 57.1619 32.4068C57.1644 31.9807 57.1261 31.5554 57.0476 31.1366L49.9849 31.0985ZM102.764 32.7244C102.464 31.8288 101.896 31.0467 101.137 30.4835C100.379 29.9202 99.466 29.6029 98.5217 29.5742C97.8852 29.5785 97.2562 29.7117 96.6725 29.9657C96.0889 30.2198 95.5628 30.5895 95.126 31.0524C94.6891 31.5154 94.3506 32.062 94.1308 32.6594C93.911 33.2568 93.8145 33.8925 93.8471 34.5282C93.8334 35.1793 93.9509 35.8265 94.1927 36.4312C94.4344 37.036 94.7953 37.5859 95.2541 38.0481C95.7128 38.5104 96.2599 38.8756 96.8627 39.122C97.4656 39.3684 98.1119 39.4909 98.763 39.4822C99.5795 39.4876 100.385 39.2895 101.105 38.9058C101.826 38.5222 102.44 37.965 102.891 37.2847L101.202 36.1541C100.949 36.5744 100.591 36.9218 100.164 37.1622C99.7362 37.4027 99.2536 37.5281 98.763 37.526C98.2593 37.5425 97.7621 37.4087 97.3346 37.1418C96.9071 36.8749 96.5686 36.4869 96.3622 36.0271L102.993 33.2833L102.764 32.7244ZM96.0066 34.3757C95.9613 33.6565 96.2035 32.9488 96.6799 32.4081C97.1563 31.8674 97.8279 31.538 98.5471 31.4923C98.9222 31.4677 99.2963 31.5532 99.6234 31.7383C99.9506 31.9233 100.217 32.1998 100.389 32.5339L96.0066 34.3757ZM90.6207 39.1773H92.7928V24.6201H90.6207V39.1773ZM87.0512 30.6793H86.975C86.6527 30.3273 86.2599 30.047 85.8222 29.8566C85.3846 29.6662 84.9117 29.57 84.4345 29.5742C83.1206 29.5742 81.8605 30.0961 80.9314 31.0252C80.0024 31.9542 79.4804 33.2143 79.4804 34.5282C79.4804 35.8421 80.0024 37.1022 80.9314 38.0312C81.8605 38.9603 83.1206 39.4822 84.4345 39.4822C84.9144 39.4881 85.3899 39.3901 85.8285 39.195C86.267 38.9999 86.6581 38.7122 86.975 38.3517H87.0512V39.063C87.0512 40.9684 86.035 41.9719 84.4091 41.9719C83.859 41.9666 83.3232 41.7968 82.8704 41.4844C82.4177 41.172 82.0688 40.7313 81.8685 40.219L80.0267 41.0065C80.3822 41.8772 80.9888 42.6224 81.7692 43.1472C82.5496 43.672 83.4686 43.9527 84.4091 43.9535C86.9496 43.9535 89.1217 42.4546 89.1217 38.7963V29.9044H87.0512V30.6793ZM84.5107 37.526C83.7632 37.4571 83.0685 37.1115 82.5627 36.5569C82.0568 36.0023 81.7764 35.2788 81.7764 34.5282C81.7764 33.7776 82.0568 33.054 82.5627 32.4994C83.0685 31.9449 83.7632 31.5992 84.5107 31.5304C84.8842 31.5478 85.2503 31.6404 85.5872 31.8026C85.9241 31.9648 86.2248 32.1932 86.4715 32.4742C86.7181 32.7552 86.9055 33.0831 87.0226 33.4382C87.1397 33.7932 87.184 34.1683 87.1528 34.5409C87.1822 34.9118 87.1365 35.2849 87.0185 35.6377C86.9004 35.9906 86.7125 36.3161 86.4659 36.5947C86.2193 36.8733 85.919 37.0994 85.5831 37.2594C85.2472 37.4194 84.8824 37.5101 84.5107 37.526ZM112.965 24.6201H107.757V39.1773H109.929V33.6644H112.965C113.587 33.7111 114.212 33.6288 114.801 33.4227C115.39 33.2166 115.931 32.8911 116.388 32.4666C116.846 32.0422 117.211 31.5278 117.46 30.9558C117.71 30.3838 117.839 29.7664 117.839 29.1423C117.839 28.5182 117.71 27.9008 117.46 27.3287C117.211 26.7567 116.846 26.2424 116.388 25.8179C115.931 25.3934 115.39 25.0679 114.801 24.8618C114.212 24.6557 113.587 24.5734 112.965 24.6201ZM112.965 31.632H109.929V26.6398H113.054C113.421 26.5702 113.799 26.5825 114.161 26.6757C114.523 26.769 114.859 26.9409 115.147 27.1793C115.435 27.4177 115.667 27.7167 115.826 28.0549C115.985 28.3931 116.067 28.7622 116.067 29.1359C116.067 29.5096 115.985 29.8788 115.826 30.217C115.667 30.5552 115.435 30.8541 115.147 31.0925C114.859 31.3309 114.523 31.5028 114.161 31.5961C113.799 31.6893 113.421 31.7016 113.054 31.632M126.493 29.5487C125.699 29.5029 124.909 29.6886 124.219 30.0832C123.529 30.4779 122.969 31.0645 122.606 31.7717L124.537 32.5847C124.729 32.2315 125.02 31.9422 125.374 31.7526C125.729 31.563 126.131 31.4813 126.531 31.5177C127.081 31.4644 127.631 31.6307 128.059 31.9805C128.487 32.3302 128.76 32.835 128.817 33.3849V33.5374C128.117 33.1663 127.336 32.9743 126.544 32.9785C124.473 32.9785 122.352 34.1217 122.352 36.2557C122.373 36.7048 122.483 37.1451 122.677 37.5507C122.871 37.9564 123.144 38.3191 123.48 38.6174C123.816 38.9158 124.209 39.1438 124.635 39.2879C125.061 39.4321 125.511 39.4895 125.959 39.4568C126.508 39.4886 127.055 39.3735 127.544 39.1235C128.033 38.8734 128.446 38.4973 128.741 38.0341H128.817V39.1519H130.837V33.5755C130.837 31.035 128.906 29.5487 126.417 29.5487M126.15 37.526C125.439 37.526 124.448 37.1703 124.448 36.2557C124.448 35.1252 125.718 34.6933 126.747 34.6933C127.444 34.6772 128.133 34.8483 128.741 35.1887C128.66 35.8113 128.36 36.3846 127.894 36.806C127.429 37.2273 126.828 37.469 126.201 37.4879M138.535 29.8663L135.994 36.2176H135.918L133.378 29.8663H131.04L134.851 38.7582L132.641 43.6614H134.902L140.999 29.8663H138.535ZM118.935 39.1773H121.107V24.6201H118.935V39.1773Z" fill="#131313"/>
<path d="M43.0366 13.3531H45.3612C46.0415 13.3373 46.7146 13.4947 47.3174 13.8104C47.8588 14.0967 48.3014 14.5393 48.5877 15.0807C48.8949 15.6688 49.0553 16.3226 49.0553 16.9861C49.0553 17.6496 48.8949 18.3033 48.5877 18.8915C48.3014 19.4329 47.8588 19.8755 47.3174 20.1618C46.7146 20.4775 46.0415 20.6349 45.3612 20.6191H43.0366V13.3531ZM45.3231 19.552C45.6728 19.5762 46.0238 19.5278 46.3539 19.4097C46.684 19.2917 46.9861 19.1066 47.2412 18.8661C47.4769 18.6155 47.6592 18.3196 47.7771 17.9965C47.895 17.6733 47.946 17.3296 47.9271 16.9861C47.9517 16.6462 47.9029 16.3049 47.7839 15.9855C47.6649 15.6662 47.4786 15.3761 47.2376 15.1351C46.9966 14.8941 46.7066 14.7078 46.3872 14.5888C46.0678 14.4698 45.7265 14.421 45.3866 14.4456H44.218V19.5266L45.3231 19.552Z" fill="black"/>
<path d="M50.5186 13.353H54.9137V14.4073H51.6237V16.4525H54.6215V17.5068H51.6237V19.5519H54.9137V20.6062H50.5186V13.353Z" fill="black"/>
<path d="M56.8697 20.2376C56.3863 19.8712 56.0415 19.3517 55.8916 18.7641L56.9459 18.3322C57.0453 18.711 57.2424 19.057 57.5175 19.3357C57.7833 19.5628 58.1166 19.6959 58.4657 19.7142C58.8148 19.7326 59.1602 19.6353 59.4483 19.4373C59.571 19.3468 59.6697 19.2278 59.7361 19.0906C59.8025 18.9533 59.8345 18.8021 59.8294 18.6497C59.8354 18.5079 59.8088 18.3665 59.7515 18.2366C59.6942 18.1066 59.6079 17.9916 59.4992 17.9003C59.1546 17.6336 58.7623 17.4352 58.3432 17.316L57.8859 17.1508C57.4138 17.0009 56.9802 16.7495 56.6157 16.4141C56.4476 16.2502 56.3174 16.0516 56.234 15.8322C56.1507 15.6128 56.1162 15.3779 56.133 15.1438C56.1279 14.7934 56.225 14.4491 56.4124 14.153C56.613 13.8426 56.8939 13.5924 57.2254 13.4289C57.6026 13.2532 58.0164 13.1705 58.4321 13.1876C58.9738 13.16 59.5082 13.3217 59.9437 13.6449C60.2905 13.9166 60.5581 14.2763 60.7186 14.6865L59.7024 15.1184C59.6274 14.8672 59.4766 14.6453 59.2705 14.4833C59.03 14.3018 58.7329 14.2118 58.4321 14.2292C58.1314 14.2118 57.8342 14.3018 57.5938 14.4833C57.4871 14.5601 57.4004 14.6613 57.3407 14.7784C57.2811 14.8954 57.2502 15.0251 57.2508 15.1565C57.2488 15.277 57.2754 15.3962 57.3284 15.5044C57.3814 15.6126 57.4593 15.7067 57.5556 15.7789C57.8458 15.986 58.1675 16.1447 58.5083 16.2489L58.9783 16.4141C59.5155 16.578 60.0071 16.8651 60.4137 17.2524C60.5886 17.4362 60.724 17.6539 60.8114 17.8921C60.8987 18.1302 60.9364 18.3838 60.9218 18.637C60.9386 19.0595 60.8133 19.4754 60.5662 19.8184C60.3296 20.1404 60.0087 20.391 59.6389 20.5424C59.2767 20.6937 58.8881 20.7714 58.4956 20.7711C57.9096 20.7776 57.3379 20.59 56.8697 20.2376Z" fill="black"/>
<path d="M63.7798 20.2759C63.207 19.9509 62.7329 19.4768 62.4079 18.904C62.0899 18.3193 61.9233 17.6642 61.9233 16.9986C61.9233 16.333 62.0899 15.678 62.4079 15.0932C62.7329 14.5204 63.207 14.0463 63.7798 13.7213C64.3643 13.39 65.026 13.2191 65.6979 13.2259C66.2043 13.2118 66.7074 13.3105 67.171 13.5149C67.6345 13.7192 68.0469 14.024 68.3781 14.4073L67.6033 15.1694C67.3737 14.8924 67.088 14.6672 66.7649 14.5089C66.4361 14.3515 66.075 14.2732 65.7106 14.2802C65.2395 14.2748 64.7752 14.3931 64.3641 14.6232C63.9569 14.8465 63.622 15.1815 63.3987 15.5886C63.1651 16.0287 63.043 16.5194 63.043 17.0177C63.043 17.5159 63.1651 18.0066 63.3987 18.4467C63.622 18.8539 63.9569 19.1888 64.3641 19.4121C64.7752 19.6423 65.2395 19.7605 65.7106 19.7551C66.1125 19.7596 66.5097 19.6687 66.8697 19.4898C67.2296 19.311 67.542 19.0492 67.7811 18.7262L68.5814 19.501C68.235 19.9133 67.801 20.2431 67.3111 20.4664C66.801 20.699 66.2458 20.8161 65.6852 20.8094C65.0141 20.8024 64.3568 20.6184 63.7798 20.2759Z" fill="black"/>
<path d="M72.0368 13.353H73.3071L76.0635 20.6062H74.7933L74.12 18.7389H71.1349L70.4744 20.6062H69.2041L72.0368 13.353ZM73.7898 17.71L72.9768 15.4871L72.6973 14.6487L72.4179 15.4871L71.6049 17.71H73.7898Z" fill="black"/>
<path d="M77.1431 13.3533H79.6836C80.0985 13.3475 80.5084 13.4435 80.8776 13.6327C81.2228 13.8151 81.5124 14.0872 81.716 14.4203C81.9219 14.7703 82.0274 15.1702 82.0209 15.5762C82.0251 16.0429 81.8578 16.4949 81.5509 16.8465C81.2518 17.2238 80.8365 17.4917 80.3695 17.6087L82.3638 20.4795H81.0936L79.1374 17.7611H78.2609V20.6065H77.1431V13.3533ZM79.6836 16.7322C80.0115 16.741 80.3301 16.6227 80.5728 16.4019C80.687 16.2945 80.7775 16.1644 80.8388 16.0201C80.9 15.8758 80.9305 15.7203 80.9285 15.5635C80.9297 15.4129 80.9011 15.2636 80.8444 15.1241C80.7877 14.9846 80.7041 14.8576 80.5982 14.7506C80.487 14.6308 80.3509 14.5369 80.1994 14.4754C80.048 14.414 79.8849 14.3865 79.7217 14.3949H78.2609V16.7322H79.6836Z" fill="black"/>
<path d="M84.9551 20.2762C84.3726 19.9491 83.8892 19.4707 83.5561 18.8916C83.2229 18.3125 83.0524 17.6542 83.0624 16.9862C83.0607 16.3181 83.2347 15.6613 83.5669 15.0816C83.8991 14.5019 84.3778 14.0198 84.9551 13.6835C85.5359 13.3543 86.193 13.1835 86.8605 13.1881C87.387 13.1844 87.9091 13.2836 88.3975 13.4802C88.8437 13.6717 89.2458 13.9527 89.5789 14.3059L88.804 15.0808C88.5594 14.8095 88.2591 14.5942 87.9237 14.4496C87.5884 14.3049 87.2257 14.2342 86.8605 14.2424C86.4151 14.2489 85.9784 14.3668 85.5903 14.5854C85.177 14.8093 84.8341 15.1435 84.5995 15.5508C84.352 15.9883 84.2249 16.4836 84.2311 16.9862C84.2214 17.4869 84.3535 17.9801 84.6122 18.4089C84.8433 18.8144 85.1817 19.1484 85.5903 19.3743C85.9786 19.5924 86.4152 19.7102 86.8605 19.7172C87.2046 19.7294 87.5475 19.6715 87.8685 19.547C88.1895 19.4225 88.4819 19.2341 88.7278 18.9932C88.8918 18.8349 89.0215 18.6447 89.1089 18.4343C89.2209 18.1924 89.2979 17.9357 89.3375 17.6721H86.797V16.6813H90.3283C90.344 16.88 90.344 17.0796 90.3283 17.2783C90.3486 17.7065 90.3015 18.1351 90.1886 18.5486C90.0404 18.9612 89.8066 19.3378 89.5027 19.6537C89.178 19.9989 88.7841 20.2716 88.3467 20.454C87.8623 20.6475 87.344 20.7425 86.8224 20.7335C86.1711 20.7431 85.5282 20.5857 84.9551 20.2762Z" fill="black"/>
<path d="M93.6691 13.353H94.9393L97.6831 20.6062H96.4129L95.7396 18.7389H92.8307L92.1575 20.6062H90.8872L93.6691 13.353ZM95.422 17.71L94.6091 15.4871L94.3423 14.6487L94.0756 15.4871L93.2626 17.71H95.422Z" fill="black"/>
<path d="M98.7754 13.3529H101.316C101.727 13.3456 102.133 13.4417 102.497 13.6324C102.843 13.8183 103.136 14.0894 103.348 14.42C103.554 14.7699 103.66 15.1699 103.653 15.5759C103.657 16.0426 103.49 16.4946 103.183 16.8462C102.879 17.218 102.466 17.4846 102.002 17.6083L103.996 20.4791H102.726L100.795 17.6337H99.9059V20.4791H98.7881L98.7754 13.3529ZM101.316 16.7318C101.644 16.7407 101.962 16.6223 102.205 16.4016C102.424 16.1825 102.547 15.8855 102.547 15.5759C102.547 15.2663 102.424 14.9693 102.205 14.7502C102.094 14.6305 101.958 14.5366 101.806 14.4751C101.655 14.4137 101.492 14.3862 101.329 14.3945H99.8932V16.7318H101.316Z" fill="black"/>
<path d="M107.325 13.353H111.783V14.4073H108.443V16.4525H111.402V17.5068H108.443V19.5519H111.783V20.6062H107.325V13.353Z" fill="#131313"/>
<path d="M113.282 13.353H114.553L117.83 18.6881V17.2781V13.353H118.935V20.6062H117.779L114.337 15.0044V16.4017V20.6062H113.231L113.282 13.353Z" fill="black"/>
</g>
<defs>
<clipPath id="clip0_352_913">
<rect width="152" height="50.8106" fill="white" transform="translate(0 0.764648)"/>
</clipPath>
</defs>
</svg>
