<svg width="32" height="33" viewBox="0 0 32 33" fill="none" xmlns="http://www.w3.org/2000/svg">
<circle cx="16" cy="16.3394" r="16" fill="#788B96"/>
<path d="M17.3502 16.804V22.6904H14.5264V12.5086H17.2177V14.305H17.337C17.5624 13.7128 17.9402 13.2443 18.4705 12.8996C19.0008 12.5505 19.6438 12.376 20.3995 12.376C21.1065 12.376 21.723 12.5306 22.2489 12.84C22.7748 13.1493 23.1836 13.5913 23.4752 14.1657C23.7669 14.7358 23.9127 15.4164 23.9127 16.2074V22.6904H21.0889V16.7112C21.0933 16.0881 20.9342 15.602 20.6116 15.2529C20.289 14.8993 19.8449 14.7226 19.2792 14.7226C18.8992 14.7226 18.5633 14.8043 18.2716 14.9678C17.9844 15.1313 17.759 15.37 17.5955 15.6837C17.4364 15.9931 17.3547 16.3665 17.3502 16.804Z" fill="#F5F9FB"/>
<path d="M9.43956 22.6907V12.5089H12.2634V22.6907H9.43956ZM10.8581 11.1964C10.4383 11.1964 10.0781 11.0572 9.77762 10.7787C9.48154 10.4959 9.3335 10.1579 9.3335 9.76454C9.3335 9.37566 9.48154 9.04201 9.77762 8.7636C10.0781 8.48077 10.4383 8.33936 10.8581 8.33936C11.2779 8.33936 11.6359 8.48077 11.932 8.7636C12.2325 9.04201 12.3827 9.37566 12.3827 9.76454C12.3827 10.1579 12.2325 10.4959 11.932 10.7787C11.6359 11.0572 11.2779 11.1964 10.8581 11.1964Z" fill="#F5F9FB"/>
</svg>
