<svg width="115" height="21" viewBox="0 0 115 21" fill="none" xmlns="http://www.w3.org/2000/svg">
<path d="M15.168 9.31572C15.1198 8.58412 14.9272 7.85252 14.542 7.21847L11.2676 1.41443C11.0269 0.975468 10.8343 0.487734 10.738 0L10.5935 0.243867C9.77492 1.6583 9.77492 3.46291 10.5935 4.87734L13.2419 9.51082C14.0605 10.9252 14.0605 12.7299 13.2419 14.1443L13.0974 14.3882C13.0011 13.9004 12.8085 13.4127 12.5678 12.9737L10.1601 8.73044L8.61926 5.99913C8.3785 5.56017 8.18589 5.07244 8.08959 4.5847L7.94513 4.82857C7.12654 6.243 7.12654 7.99884 7.94513 9.46204L10.5935 14.0955C11.4121 15.5099 11.4121 17.3146 10.5935 18.729L10.4491 18.9729C10.3527 18.4851 10.1601 17.9974 9.91938 17.5584L6.59687 11.7544C6.1635 10.974 5.97089 10.0961 5.97089 9.21818C2.45577 10.1449 0 12.1446 0 14.4369C0 17.656 4.71893 20.241 10.5454 20.241C16.3718 20.241 21.0907 17.656 21.0907 14.4369C21.1389 12.2421 18.7312 10.2424 15.168 9.31572ZM25.1355 19.2167C25.1837 18.3876 25.28 17.8511 25.5207 17.1682C26.6282 17.7047 28.0728 17.9486 29.1321 17.9486C30.9619 17.9486 32.0213 17.3633 32.0213 16.144C32.0213 14.9734 31.2508 14.4369 29.4211 13.6078L28.4099 13.2176C26.5319 12.3884 25.28 11.3154 25.28 9.21818C25.28 6.92582 26.869 5.46262 30.047 5.46262C31.3472 5.46262 32.551 5.65772 33.6585 6.0479C33.6103 6.82828 33.4659 7.46233 33.2732 8.04761C32.2139 7.65743 30.9138 7.46233 29.9989 7.46233C28.2654 7.46233 27.495 8.14516 27.495 9.21818C27.495 10.2424 28.2654 10.8765 29.6618 11.4618L30.7212 11.9007C33.2251 12.9737 34.2844 14.1443 34.2844 16.0952C34.2844 18.3876 32.551 19.9971 29.1803 19.9971C27.5913 19.9971 26.243 19.7532 25.1355 19.2167ZM44.9261 9.60836V19.6557H42.9037L42.8074 18.4364C42.2296 19.3143 41.411 19.8996 40.0146 19.8996C37.4143 19.8996 35.6327 17.9486 35.6327 14.5833C35.6327 11.0716 37.5106 9.02308 41.1702 9.02308C42.6148 9.07185 43.8186 9.21818 44.9261 9.60836ZM42.7593 17.3633V11.0716C42.3259 10.974 41.7962 10.974 41.1702 10.974C38.9071 10.974 37.8477 12.3884 37.8477 14.632C37.8477 16.6805 38.6663 18.1437 40.5924 18.1437C41.5073 18.0949 42.1814 17.8023 42.7593 17.3633ZM56.0974 12.925V19.6557H53.9306V13.3151C53.9306 11.7056 53.4009 10.974 51.2341 10.974C50.7044 10.974 50.1266 11.0228 49.5006 11.1203V19.6557H47.3337V9.60836C48.7301 9.26695 50.271 9.02308 51.2822 9.02308C54.9418 9.07185 56.0974 10.4863 56.0974 12.925ZM62.1646 18.0462C62.7906 18.0462 63.4166 17.9486 63.85 17.7535C63.8018 18.3388 63.7055 19.0216 63.6092 19.6069C63.0314 19.8508 62.3572 19.9483 61.7794 19.9483C59.6607 19.9483 58.3124 18.9729 58.3124 16.5342V5.95036C58.9866 5.70649 59.8052 5.60894 60.4793 5.60894V9.41327H63.9463C63.8981 10.0961 63.85 10.7302 63.7537 11.3154H60.4793V16.2415C60.4793 17.5097 61.1053 18.0462 62.1646 18.0462ZM73.8656 9.60836V19.6557H71.8432L71.7469 18.4364C71.1691 19.3143 70.3505 19.8996 68.9541 19.8996C66.3539 19.8996 64.5723 17.9486 64.5723 14.5833C64.5723 11.0716 66.4502 9.02308 70.1098 9.02308C71.5543 9.07185 72.71 9.21818 73.8656 9.60836ZM71.6506 17.3633V11.0716C71.2173 10.974 70.6876 10.974 70.0616 10.974C67.7985 10.974 66.7391 12.3884 66.7391 14.632C66.7391 16.6805 67.5577 18.1437 69.4838 18.1437C70.3987 18.0949 71.121 17.8023 71.6506 17.3633ZM85.037 12.925V19.6557H82.822V13.3151C82.822 11.7056 82.2923 10.974 80.1254 10.974C79.5958 10.974 79.0179 11.0228 78.392 11.1203V19.6557H76.2251V9.60836C77.6215 9.26695 79.1624 9.02308 80.1736 9.02308C83.8332 9.07185 85.037 10.4863 85.037 12.925ZM96.0639 5.60894V19.6557H94.0415L93.9452 18.3876C93.3673 19.3143 92.5487 19.8996 91.1042 19.8996C88.5039 19.8996 86.7223 17.9486 86.7223 14.5833C86.7223 11.0716 88.6003 9.02308 92.2598 9.02308C92.8377 9.02308 93.3673 9.07186 93.897 9.1694V5.85281C94.5711 5.65772 95.3416 5.60894 96.0639 5.60894ZM93.897 17.3633V11.1691C93.3192 11.0716 92.7413 10.974 92.1635 10.974C89.9967 10.974 88.9855 12.3397 88.9855 14.632C88.9855 16.6805 89.8041 18.1437 91.7301 18.1437C92.5969 18.0949 93.3192 17.8023 93.897 17.3633ZM107.043 15.3636H100.061C100.349 17.1682 101.361 17.9974 103.335 17.9974C104.539 17.9974 105.742 17.7535 106.802 17.217C106.706 17.8023 106.609 18.5827 106.465 19.2167C105.454 19.6557 104.442 19.8508 103.239 19.8508C99.579 19.8508 97.8455 17.8023 97.8455 14.3882C97.8455 11.413 99.1938 9.02308 102.661 9.02308C105.791 9.02308 107.139 11.0716 107.139 13.6078C107.139 14.2906 107.139 14.7783 107.043 15.3636ZM100.061 13.5102H104.972C104.972 11.8519 104.105 10.8765 102.613 10.8765C101.024 10.9252 100.205 11.8032 100.061 13.5102ZM114.699 9.1694C114.699 9.85223 114.602 10.6326 114.506 11.0716C113.977 11.0228 113.495 10.974 112.869 10.974C112.339 10.974 111.81 11.0228 111.28 11.0716V19.6557H109.113V9.60836C110.028 9.26695 111.617 9.02308 112.821 9.02308C113.447 9.07185 114.217 9.07186 114.699 9.1694Z" fill="#EC0000"/>
</svg>
