<svg width="24" height="25" viewBox="0 0 24 25" fill="none" xmlns="http://www.w3.org/2000/svg">
<path d="M18.4642 13.6197C17.3353 13.1992 16.0747 13.7444 15.6089 14.8549L14.6903 17.0416C11.9662 15.556 8.79768 12.3845 7.29863 9.64952L9.48481 8.73027C10.5948 8.26336 11.1399 7.00433 10.7207 5.87532L9.94958 3.80391C9.62147 2.92379 8.78148 2.33936 7.843 2.33936H4.614C3.16998 2.33936 2 3.5101 2 4.95436C2 14.5558 9.7832 22.3394 19.385 22.3394C20.8293 22.3394 22 21.1694 22 19.7254V16.4964C22 15.557 21.4156 14.7161 20.5348 14.3895L18.4642 13.6197ZM14.6653 18.1545L14.7215 18.1821C14.9798 18.309 15.2915 18.1923 15.403 17.927L16.531 15.242C16.7893 14.6261 17.4889 14.3235 18.1155 14.5569L20.1868 15.327C20.6757 15.5083 21 15.975 21 16.4964V19.7254C21 20.6169 20.2771 21.3394 19.385 21.3394C10.3355 21.3394 3 14.0036 3 4.95436C3 4.06223 3.72241 3.33936 4.614 3.33936H7.843C8.36357 3.33936 8.8302 3.66402 9.0125 4.15302L9.78342 6.2238C10.016 6.8502 9.71333 7.54928 9.09714 7.80847L6.41219 8.93744C6.14792 9.04857 6.03101 9.35868 6.15615 9.61661C7.69437 12.7871 11.5009 16.6069 14.6653 18.1545Z" fill="#788B96"/>
</svg>
