<svg width="32" height="33" viewBox="0 0 32 33" fill="none" xmlns="http://www.w3.org/2000/svg">
<circle cx="16" cy="16.3394" r="16" fill="#788B96"/>
<path fill-rule="evenodd" clip-rule="evenodd" d="M10.7154 8.5537C14.2332 8.26791 17.7671 8.26791 21.2849 8.5537L23.648 8.74567C24.9642 8.8526 26.041 9.87697 26.2585 11.2292C26.8029 14.6125 26.8029 18.0663 26.2585 21.4496C26.041 22.8017 24.9642 23.8261 23.648 23.9331L21.2849 24.1251C17.7671 24.4108 14.2332 24.4108 10.7154 24.1251L8.35235 23.9331C7.03614 23.8261 5.95937 22.8017 5.74179 21.4496C5.1974 18.0663 5.1974 14.6125 5.74179 11.2292C5.95937 9.87697 7.03614 8.8526 8.35235 8.74567L10.7154 8.5537ZM13.8909 19.0444V13.6343C13.8909 13.3789 14.1592 13.2212 14.37 13.3526L18.7118 16.0577C18.9166 16.1853 18.9166 16.4935 18.7118 16.621L14.37 19.3262C14.1592 19.4576 13.8909 19.2998 13.8909 19.0444Z" fill="#F5F9FB"/>
</svg>
